<?xml version="1.0" encoding="UTF-8"?>
<svg width="23px" height="13px" viewBox="0 0 23 13" version="1.1" xmlns="http://www.w3.org/2000/svg" xmlns:xlink="http://www.w3.org/1999/xlink">
    <!-- Generator: Sketch 59.1 (86144) - https://sketch.com -->
    <title>icon-group add</title>
    <desc>Created with Sketch.</desc>
    <defs>
        <path d="M7.66666667,10 L4.79166667,10 L4.79166667,7 L2.875,7 L2.875,10 L0,10 L0,12 L2.875,12 L2.875,15 L4.79166667,15 L4.79166667,12 L7.66666667,12 L7.66666667,10 Z M17.25,11 C18.8408333,11 20.1154167,9.66 20.1154167,8 C20.1154167,6.34 18.8408333,5 17.25,5 C16.9433333,5 16.64625,5.05 16.3779167,5.14 C16.9241667,5.95 17.2404167,6.93 17.2404167,8 C17.2404167,9.07 16.9145833,10.04 16.3779167,10.86 C16.64625,10.95 16.9433333,11 17.25,11 Z M12.4583333,11 C14.0491667,11 15.32375,9.66 15.32375,8 C15.32375,6.34 14.0491667,5 12.4583333,5 C10.8675,5 9.58333333,6.34 9.58333333,8 C9.58333333,9.66 10.8675,11 12.4583333,11 Z M18.8025,13.16 C19.5979167,13.89 20.125,14.82 20.125,16 L20.125,18 L23,18 L23,16 C23,14.46 20.72875,13.51 18.8025,13.16 Z M12.4583333,13 C10.5416667,13 6.70833333,14 6.70833333,16 L6.70833333,18 L18.2083333,18 L18.2083333,16 C18.2083333,14 14.375,13 12.4583333,13 Z" id="path-1"></path>
    </defs>
    <g id="Review-tool-flow" stroke="none" stroke-width="1" fill="none" fill-rule="evenodd">
        <g id="Instructor-2-v2" transform="translate(-641.000000, -219.000000)">
            <g id="Group" transform="translate(140.000000, 33.000000)">
                <g id="Group-3" transform="translate(302.000000, 169.000000)">
                    <g id="Icon/Group-Add" transform="translate(199.000000, 12.000000)">
                        <mask id="mask-2" fill="white">
                            <use xlink:href="#path-1"></use>
                        </mask>
                        <g id="Shape" fill-rule="nonzero"></g>
                        <g id="Tint/Black/100" mask="url(#mask-2)" fill="#000000" fill-rule="evenodd" stroke-width="1">
                            <g id="Tint">
                                <rect id="Color" x="0" y="0" width="23" height="24"></rect>
                            </g>
                        </g>
                    </g>
                </g>
            </g>
        </g>
    </g>
</svg>