<svg xmlns="http://www.w3.org/2000/svg" width="30" height="36" viewBox="0 0 30 36">
  <path fill-opacity=".2" fill-rule="evenodd" d="M12,10 L38,10 C39.1045695,10 40,10.8954305 40,12 L40,44 C40,45.1045695 39.1045695,46 38,46 L12,46 C10.8954305,46 10,45.1045695 10,44 L10,12 C10,10.8954305 10.8954305,10 12,10 Z M16,17 C15.4477153,17 15,17.4477153 15,18 C15,18.5522847 15.4477153,19 16,19 L34,19 C34.5522847,19 35,18.5522847 35,18 C35,17.4477153 34.5522847,17 34,17 L16,17 Z M16,22 C15.4477153,22 15,22.4477153 15,23 C15,23.5522847 15.4477153,24 16,24 L34,24 C34.5522847,24 35,23.5522847 35,23 C35,22.4477153 34.5522847,22 34,22 L16,22 Z M16,27 C15.4477153,27 15,27.4477153 15,28 C15,28.5522847 15.4477153,29 16,29 L34,29 C34.5522847,29 35,28.5522847 35,28 C35,27.4477153 34.5522847,27 34,27 L16,27 Z M16,32 C15.4477153,32 15,32.4477153 15,33 C15,33.5522847 15.4477153,34 16,34 L34,34 C34.5522847,34 35,33.5522847 35,33 C35,32.4477153 34.5522847,32 34,32 L16,32 Z M16,37 C15.4477153,37 15,37.4477153 15,38 C15,38.5522847 15.4477153,39 16,39 L25,39 C25.5522847,39 26,38.5522847 26,38 C26,37.4477153 25.5522847,37 25,37 L16,37 Z" transform="translate(-10 -10)"/>
</svg>
