<svg xmlns="http://www.w3.org/2000/svg" viewBox="0 0 50 50"><defs><style>.cls-1{fill:#e34c48;}</style></defs><g id="Layer_2" data-name="Layer 2"><g id="Layer_1-2" data-name="Layer 1"><path class="cls-1" d="M38.92,4.24c.46,3.38.54,7.53-1.34,9.53a16.83,16.83,0,0,1,1.61,20.34,2.26,2.26,0,0,0,0-.26,13.18,13.18,0,0,0-.81-4.8,12.06,12.06,0,0,0-2.12-3.53,13.92,13.92,0,0,0-3-2.58A32.36,32.36,0,0,0,29.86,21c-1.17-.57-2.31-1.1-3.43-1.61a23.37,23.37,0,0,1-3-1.63,7.74,7.74,0,0,1-2.11-2,4.43,4.43,0,0,1-.79-2.64,5.35,5.35,0,0,1,.35-2,4,4,0,0,1,1.07-1.57,5.34,5.34,0,0,1,1.8-1,8,8,0,0,1,2.52-.37l.76,0a16.75,16.75,0,0,1,8.54,3.6,1.94,1.94,0,0,0,.38-.59c.66-1.49.54-4.47.12-7.31q-.12-.77-.27-1.5A25,25,0,0,0,8.85,44.07c-.44-3.85-.45-8.49,1.58-10.56h0a16.84,16.84,0,0,1,1.13-18.68,12.79,12.79,0,0,0,.79,4.27,12.36,12.36,0,0,0,2.1,3.56,13.91,13.91,0,0,0,2.94,2.59,33.45,33.45,0,0,0,3.39,1.92c1.17.57,2.3,1.11,3.4,1.61a21.21,21.21,0,0,1,2.94,1.63,8.32,8.32,0,0,1,2.1,2,4.47,4.47,0,0,1,.8,2.67,6.08,6.08,0,0,1-.47,2.45,4.68,4.68,0,0,1-1.36,1.83A6.15,6.15,0,0,1,26,40.48a9.51,9.51,0,0,1-2.89.41,14.74,14.74,0,0,1-4.31-.58l0,0A14.31,14.31,0,0,1,12.22,36l0,0a3.33,3.33,0,0,0-.53,1.27A24.54,24.54,0,0,0,11.8,45c.06.46.12.9.2,1.33h0A25,25,0,0,0,38.92,4.24Z"/></g></g></svg>
